<svg xmlns="http://www.w3.org/2000/svg" width="69" height="60" viewBox="0 0 69 60">
  <defs>
    <style>
      .cls-1 {
        fill: #fc0;
        fill-rule: evenodd;
      }
    </style>
  </defs>
  <path id="Forma_1" data-name="Forma 1" class="cls-1" d="M1886,1541.85c0-13.15-12.83-23.85-28.59-23.85s-28.6,10.7-28.6,23.85,12.83,23.85,28.6,23.85a34.908,34.908,0,0,0,3.96-.22c6.07,3.83,10.56,5.93,13.33,6.24,0.1,0.01.2,0.02,0.29,0.02a2.641,2.641,0,0,0,2.21-1.19,2.6,2.6,0,0,0,.1-2.74c-0.02-.04-2.17-3.93-1.55-7.65C1882.28,1555.62,1886,1548.98,1886,1541.85Zm-36.36,3.6a4.21,4.21,0,1,1,4.24-4.21A4.223,4.223,0,0,1,1849.64,1545.45Zm15.53,0a4.21,4.21,0,1,1,4.24-4.21A4.214,4.214,0,0,1,1865.17,1545.45Zm-30.32,15.48a25.886,25.886,0,0,1-6.64-8.12,22.038,22.038,0,0,1,0-20.39c0.12-.25.26-0.49,0.39-0.73-7,3.99-11.6,10.65-11.6,18.18,0,6.76,3.66,13.04,10.06,17.26,1.19,4.62-1.56,9.51-1.59,9.56a0.894,0.894,0,0,0,.03.92,0.92,0.92,0,0,0,.74.39,0.34,0.34,0,0,0,.1-0.01c3.2-.35,8.84-3.59,13.11-6.32a31.909,31.909,0,0,0,4.38.3,30.78,30.78,0,0,0,15.14-3.87c-0.97.08-1.94,0.12-2.9,0.12A33.339,33.339,0,0,1,1834.85,1560.93Z" transform="translate(-1817 -1518)"/>
</svg>
