<?xml version="1.0" standalone="no"?>
<!DOCTYPE svg PUBLIC "-//W3C//DTD SVG 20010904//EN"
 "http://www.w3.org/TR/2001/REC-SVG-20010904/DTD/svg10.dtd">
<svg version="1.0" xmlns="http://www.w3.org/2000/svg"
 width="33.000000pt" height="40.000000pt" viewBox="0 0 33.000000 40.000000"
 preserveAspectRatio="xMidYMid meet">

<g transform="translate(0.000000,40.000000) scale(0.100000,-0.100000)"
fill="#fff" stroke="none">
<path d="M81 357 l-83 -39 7 -55 c13 -108 53 -187 117 -234 37 -26 42 -27 67
-15 60 32 109 110 131 206 20 90 16 98 -75 139 l-80 37 -84 -39z m153 -88 c33
-39 33 -79 0 -118 -36 -43 -93 -44 -135 -2 -37 37 -38 79 -3 120 21 26 33 31
69 31 36 0 48 -5 69 -31z"/>
<path d="M178 223 c-23 -22 -29 -24 -43 -13 -25 21 -31 2 -7 -22 l22 -22 35
34 c34 33 43 50 27 50 -4 0 -19 -12 -34 -27z"/>
</g>
</svg>
